<svg clip-rule="evenodd" fill-rule="evenodd" height="512" image-rendering="optimizeQuality" shape-rendering="geometricPrecision" text-rendering="geometricPrecision" viewBox="0 0 512 512" width="512" xmlns="http://www.w3.org/2000/svg" xmlns:xodm="http://www.corel.com/coreldraw/odm/2003"><g id="Layer_x0020_1"><path d="m256 0c141.39 0 256 114.61 256 256s-114.61 256-256 256-256-114.61-256-256 114.61-256 256-256zm-44.98 230.62c73.2-25.22 47.33-108.11 54.74-105.64 47.93 23.43 101.81 74.55 101.81 151.23 0 58.78-45.58 110.75-111.82 110.75-58.77 2.67-108.56-42.79-111.23-101.55-2.76-60.93 54.15-105.37 54.15-94.4.5 6.24 5.81 39.61 12.35 39.61z"/></g></svg>